<?xml version="1.0" encoding="UTF-8" standalone="no"?>
<svg
   xmlns:dc="http://purl.org/dc/elements/1.1/"
   xmlns:cc="http://creativecommons.org/ns#"
   xmlns:rdf="http://www.w3.org/1999/02/22-rdf-syntax-ns#"
   xmlns:svg="http://www.w3.org/2000/svg"
   xmlns="http://www.w3.org/2000/svg"
   xmlns:sodipodi="http://sodipodi.sourceforge.net/DTD/sodipodi-0.dtd"
   xmlns:inkscape="http://www.inkscape.org/namespaces/inkscape"
   width="40"
   viewBox="0 0 40 40"
   height="40"
   id="svg2"
   version="1.1"
   inkscape:version="0.91 r13725"
   sodipodi:docname="cancel.svg">
  <metadata
     id="metadata10">
    <rdf:RDF>
      <cc:Work
         rdf:about="">
        <dc:format>image/svg+xml</dc:format>
        <dc:type
           rdf:resource="http://purl.org/dc/dcmitype/StillImage" />
        <dc:title></dc:title>
      </cc:Work>
    </rdf:RDF>
  </metadata>
  <defs
     id="defs8" />
  <sodipodi:namedview
     pagecolor="#ffffff"
     bordercolor="#666666"
     borderopacity="1"
     objecttolerance="10"
     gridtolerance="10"
     guidetolerance="10"
     inkscape:pageopacity="0"
     inkscape:pageshadow="2"
     inkscape:window-width="968"
     inkscape:window-height="998"
     id="namedview6"
     showgrid="false"
     inkscape:zoom="14.75"
     inkscape:cx="8.0000006"
     inkscape:cy="7.9983617"
     inkscape:window-x="20"
     inkscape:window-y="62"
     inkscape:window-maximized="0"
     inkscape:current-layer="svg2"
     fit-margin-top="0"
     fit-margin-left="0"
     fit-margin-right="0"
     fit-margin-bottom="0" />
  <path
     style="fill:#f9f9f9;fill-rule:evenodd"
     d="M 20.546875,0.00747759 A 19.999999,19.998309 0 0 0 1.3981694e-6,20.005787 19.999999,19.998309 0 0 0 39.999999,20.005787 19.999999,19.998309 0 0 0 20.546875,0.00747759 Z M 18.906251,5.0070556 A 14.999999,14.998732 0 0 1 28.75,7.7411986 L 7.8125009,28.676928 A 14.999999,14.998732 0 0 1 5.0000011,20.005787 14.999999,14.998732 0 0 1 18.906251,5.0070556 Z m 13.359374,6.2494714 a 14.999999,14.998732 0 0 1 2.734374,8.74926 14.999999,14.998732 0 0 1 -23.671873,12.186469 L 32.265625,11.256527 Z"
     id="path4"
     inkscape:connector-curvature="0" />
</svg>
