<?xml version="1.0" encoding="UTF-8" standalone="no"?>
<svg
   xmlns:dc="http://purl.org/dc/elements/1.1/"
   xmlns:cc="http://creativecommons.org/ns#"
   xmlns:rdf="http://www.w3.org/1999/02/22-rdf-syntax-ns#"
   xmlns:svg="http://www.w3.org/2000/svg"
   xmlns="http://www.w3.org/2000/svg"
   xmlns:sodipodi="http://sodipodi.sourceforge.net/DTD/sodipodi-0.dtd"
   xmlns:inkscape="http://www.inkscape.org/namespaces/inkscape"
   width="40"
   viewBox="0 0 40 40.000001"
   height="40"
   id="svg24"
   version="1.1"
   inkscape:version="0.91 r13725"
   sodipodi:docname="logout.svg">
  <metadata
     id="metadata44">
    <rdf:RDF>
      <cc:Work
         rdf:about="">
        <dc:format>image/svg+xml</dc:format>
        <dc:type
           rdf:resource="http://purl.org/dc/dcmitype/StillImage" />
        <dc:title></dc:title>
      </cc:Work>
    </rdf:RDF>
  </metadata>
  <defs
     id="defs42" />
  <sodipodi:namedview
     pagecolor="#ffffff"
     bordercolor="#666666"
     borderopacity="1"
     objecttolerance="10"
     gridtolerance="10"
     guidetolerance="10"
     inkscape:pageopacity="0"
     inkscape:pageshadow="2"
     inkscape:window-width="892"
     inkscape:window-height="509"
     id="namedview40"
     showgrid="false"
     inkscape:zoom="14.727633"
     inkscape:cx="8.0111477"
     inkscape:cy="7.9995768"
     inkscape:window-x="1008"
     inkscape:window-y="62"
     inkscape:window-maximized="0"
     inkscape:current-layer="svg24"
     fit-margin-top="0"
     fit-margin-left="0"
     fit-margin-right="0"
     fit-margin-bottom="0" />
  <path
     style="fill:#f9f9f9;fill-rule:evenodd"
     d="M 20,1.95e-5 A 19.97211,20 0 1 0 20,39.99998 19.97211,20 0 1 0 20,1.95e-5 Z m -0.02926,4.999995 c 8.272742,0 14.979127,6.7157235 14.979127,14.9999855 0,8.284262 -6.706385,14.999985 -14.979127,14.999985 -6.523403,0 -12.0656882,-4.172078 -14.120949,-9.999989 l 5.539157,0 c 1.727805,2.984474 4.888916,4.999995 8.581792,4.999995 5.515162,0 9.986084,-4.477148 9.986084,-9.999991 0,-5.522842 -4.470922,-9.99999 -9.986084,-9.99999 -3.692875,0 -6.853987,2.015521 -8.581792,4.999995 l -5.539157,0 C 7.9050561,9.1720935 13.447341,5.0000145 19.970744,5.0000145 Z M 6.6202019,17.500002 l 11.8438481,0 c 0.868224,0 1.565202,0.702832 1.565202,1.572264 l 0,1.86035 c 0,0.869433 -0.696978,1.567381 -1.565202,1.567382 l -11.8438481,0 c -0.8682239,0 -1.5700779,-0.697949 -1.5700776,-1.567382 l 0,-1.86035 c 0,-0.869432 0.7018537,-1.572264 1.5700776,-1.572264 z"
     id="path28"
     inkscape:connector-curvature="0" />
</svg>
